# xmcd CD database file
#
# Track frame offsets:
#	150
#	16518
#	36304
#	53147
#	73442
#	92927
#	108851
#	129582
#	144121
#	165320
#	179252
#	201694
#	225314
#	237579
#	259305
#	279213
#
# Disc length: 4000 seconds
#
# Revision: 1
# Processed by: cddbd v1.5.2PL0 Copyright (c) Steve Scherf et al.
# Submitted via: CDex 1.70beta2
#
DISCID=de0f9e10
DTITLE=Various Artist - Smooth Jazz Cafe 10.2
DYEAR=2010
DGENRE=Jazz
TTITLE0=Matt Dusk - Back In Town
TTITLE1=Ania Szarmach - Bossa
TTITLE2=Queen Latifah - Quiet Nights Of Quiet Stars
TTITLE3=Chris Botti - Venice
TTITLE4=Monika Lidke - Rozpalona kolyska
TTITLE5=Roy Bennet Group - Love In Your Eyes
TTITLE6=Antonio Carmona - Hay Veces
TTITLE7=Rebekka Bakken - Not A Woman
TTITLE8=Rokia Traore - The Man I Love
TTITLE9=Mikromusic - Sennik
TTITLE10=Till Bronner - Ligia
TTITLE11=Jane Monheit - Like A Star
TTITLE12=Chiara Civello - L Train
TTITLE13=3rd Matinee - Holiday For Sweet Louise
TTITLE14=Rosie Vela - Magic Smile
TTITLE15=Marcin Nowakowski - Better Days Ahead
EXTD=YEAR: 2010
EXTT0=
EXTT1=
EXTT2=
EXTT3=
EXTT4=
EXTT5=
EXTT6=
EXTT7=
EXTT8=
EXTT9=
EXTT10=
EXTT11=
EXTT12=
EXTT13=
EXTT14=
EXTT15=
PLAYORDER=
